<?xml version="1.0" ?><svg viewBox="0 0 64 64" xmlns="http://www.w3.org/2000/svg"><g data-name="Layer 32" id="Layer_32"><path d="M2,7H59V47l-5,9H8a6,6,0,0,1-6-6Z" style="fill:#428c1c"/><path d="M12,2H8A6,6,0,0,0,2,8H2V50H2a6,6,0,0,1,6-6h4Z" style="fill:#785349"/><path d="M32.04,56H8L6.727,53.432a4.927,4.927,0,0,1,1.938-6.446h0a4.92,4.92,0,0,1,2.477-.669h3.622V27.164L31.513,38.51Z" style="fill:#50a022"/><polygon points="12 28 21.03 32.86 13 56 18 56 21.47 46 30 46 31 42 22.86 42 29.1 24 44 24 44 31 48 31 48 18 59 18 59 14 48 14 48 7 44 7 44 20 30.49 20 35 7 30 7 22.49 28.65 12 23 12 28" style="fill:#f9cb5d"/><rect height="7" style="fill:#0059be" width="11" x="48" y="7"/><polygon points="12 7 12 23 22.49 28.65 30 7 12 7" style="fill:#0059be"/><polygon points="21.47 46 30 46 36.945 56 18 56 21.47 46" style="fill:#0059be"/><polygon points="29.1 24 22.86 42 31 42 44 31 44 24 29.1 24" style="fill:#0059be"/><circle cx="45" cy="45" r="17" style="fill:#e73844"/><polygon points="14.764 29.487 14.764 24.488 12 23 12 28 14.764 29.487" style="fill:#a57f32"/><polygon points="14.764 24.488 14.764 7 12 7 12 23 14.764 24.488" style="fill:#004180"/><path d="M6.445,2.211A6,6,0,0,0,2,8V50a6,6,0,0,1,4.445-5.789Z" style="fill:#6b4137"/><path d="M45,28a16.918,16.918,0,0,0-11.04,4.088A16.988,16.988,0,0,0,60.04,52.912,16.99,16.99,0,0,0,45,28Z" style="fill:#ff4d55"/><path d="M48.218,45.218l6.161,6.161a2.12,2.12,0,0,1,.621,1.5h0A2.122,2.122,0,0,1,52.879,55h0a2.12,2.12,0,0,1-1.5-.621l-6.161-6.161Z" style="fill:#c1cfe8"/><circle cx="42" cy="42" r="7" style="fill:#fff"/><path d="M60,7a1,1,0,0,0-1-1H13V2a1,1,0,0,0-1-1H8A7.008,7.008,0,0,0,1,8V50a7.008,7.008,0,0,0,7,7H31.622A17.978,17.978,0,0,0,60,35.072ZM49,27.464V19h9V32.584A17.971,17.971,0,0,0,49,27.464ZM27.464,41h-3.2l5.547-16H43v2.118A18.028,18.028,0,0,0,27.464,41ZM44,23H29.1a1,1,0,0,0-.945.672l-6.24,18A1,1,0,0,0,22.86,43h4.258A18.1,18.1,0,0,0,27,45H21.47a1,1,0,0,0-.945.672L17.288,55H14.406l7.569-21.812a1,1,0,0,0-.471-1.209L13,27.4V24.674l9.016,4.856a1,1,0,0,0,.474.12,1,1,0,0,0,.945-.672L30.712,8H33.6l-4.05,11.672A1,1,0,0,0,30.49,21H44a1,1,0,0,0,1-1V8h2v6a1,1,0,0,0,1,1H58v2H48a1,1,0,0,0-1,1v9.118A18.1,18.1,0,0,0,45,27V24A1,1,0,0,0,44,23ZM35.712,8H43V19H31.9ZM58,13H49V8h9ZM28.6,8,21.93,27.212,13,22.4V8ZM3,8A5.006,5.006,0,0,1,8,3h3V43H8a6.977,6.977,0,0,0-5,2.11ZM3,50a5.006,5.006,0,0,1,5-5h4a1,1,0,0,0,1-1V29.674l6.806,3.663L12.289,55H8A5.006,5.006,0,0,1,3,50Zm16.405,5,2.776-8h4.937a17.878,17.878,0,0,0,2.926,8ZM45,61A16,16,0,1,1,61,45,16.019,16.019,0,0,1,45,61Z"/><path d="M49.412,45A8.015,8.015,0,1,0,45,49.412l5.674,5.674a3.121,3.121,0,0,0,4.414-4.414ZM36,42a6,6,0,1,1,6,6A6.006,6.006,0,0,1,36,42ZM52.879,54a1.117,1.117,0,0,1-.793-.328L46.8,48.385A8,8,0,0,0,48.385,46.8l5.287,5.287A1.121,1.121,0,0,1,52.879,54Z"/></g></svg>